<svg width="22" height="22" viewBox="0 0 22 22" fill="none" xmlns="http://www.w3.org/2000/svg">
<path d="M7 2V5C7 5.53043 6.78929 6.03914 6.41421 6.41421C6.03914 6.78929 5.53043 7 5 7H2M20 7H17C16.4696 7 15.9609 6.78929 15.5858 6.41421C15.2107 6.03914 15 5.53043 15 5V2M15 20V17C15 16.4696 15.2107 15.9609 15.5858 15.5858C15.9609 15.2107 16.4696 15 17 15H20M2 15H5C5.53043 15 6.03914 15.2107 6.41421 15.5858C6.78929 15.9609 7 16.4696 7 17V20" stroke="#F1F2F3" stroke-width="2.2" stroke-linecap="round" stroke-linejoin="round"/>
</svg>
