<svg width="25" height="22" viewBox="0 0 25 22" fill="none" xmlns="http://www.w3.org/2000/svg">
<path d="M20.6667 2H4.33333C3.04467 2 2 2.89543 2 4V18C2 19.1046 3.04467 20 4.33333 20H20.6667C21.9553 20 23 19.1046 23 18V4C23 2.89543 21.9553 2 20.6667 2Z" stroke="#F1F2F3" stroke-width="2.2" stroke-linecap="round" stroke-linejoin="round"/>
<path d="M18.8667 11H13.7333C13.3283 11 13 11.2786 13 11.6222V15.9778C13 16.3214 13.3283 16.6 13.7333 16.6H18.8667C19.2717 16.6 19.6 16.3214 19.6 15.9778V11.6222C19.6 11.2786 19.2717 11 18.8667 11Z" fill="#F1F2F3" stroke="#F1F2F3" stroke-width="1.7" stroke-linecap="round" stroke-linejoin="round"/>
</svg>
