<svg width="22" height="22" viewBox="0 0 22 22" fill="none" xmlns="http://www.w3.org/2000/svg">
<path d="M8.608 0.517C9.378 0.342 10.178 0.25 11 0.25C16.937 0.25 21.75 5.063 21.75 11C21.75 16.937 16.937 21.75 11 21.75C10.178 21.75 9.378 21.658 8.608 21.483C8.51194 21.4612 8.42111 21.4207 8.3407 21.3638C8.2603 21.3069 8.19188 21.2347 8.13937 21.1514C8.08686 21.068 8.05128 20.9752 8.03466 20.8781C8.01804 20.781 8.0207 20.6816 8.0425 20.5855C8.0643 20.4894 8.10481 20.3986 8.16171 20.3182C8.21861 20.2378 8.29079 20.1694 8.37413 20.1169C8.45747 20.0644 8.55034 20.0288 8.64743 20.0122C8.74452 19.9955 8.84394 19.9982 8.94 20.02C10.2944 20.3278 11.7007 20.3266 13.0545 20.0166C14.4084 19.7066 15.6751 19.0957 16.7606 18.2292C17.846 17.3628 18.7225 16.263 19.3248 15.0115C19.9271 13.76 20.2399 12.3889 20.2399 11C20.2399 9.6111 19.9271 8.24002 19.3248 6.98852C18.7225 5.73702 17.846 4.63722 16.7606 3.77075C15.6751 2.90428 14.4084 2.29337 13.0545 1.98336C11.7007 1.67335 10.2944 1.6722 8.94 1.98C8.74599 2.02403 8.54245 1.98918 8.37413 1.88313C8.20582 1.77708 8.08653 1.60851 8.0425 1.4145C7.99847 1.22049 8.03332 1.01695 8.13937 0.848631C8.24542 0.680317 8.41399 0.561026 8.608 0.517ZM6.314 2.132C6.4199 2.30029 6.45463 2.50375 6.41056 2.69765C6.3665 2.89155 6.24724 3.06001 6.079 3.166C4.9024 3.90739 3.90699 4.90314 3.166 6.08C3.05991 6.24841 2.89127 6.36778 2.69717 6.41186C2.50307 6.45593 2.29941 6.42109 2.131 6.315C1.96259 6.20891 1.84322 6.04027 1.79914 5.84617C1.75507 5.65207 1.78991 5.44841 1.896 5.28C2.75694 3.91356 3.9133 2.75754 5.28 1.897C5.36337 1.84441 5.45629 1.80877 5.55345 1.79211C5.6506 1.77546 5.75009 1.77812 5.84621 1.79995C5.94234 1.82177 6.03322 1.86234 6.11366 1.91931C6.1941 1.97629 6.26152 2.04856 6.314 2.132ZM1.98 8.94C2.02403 8.74599 1.98918 8.54245 1.88313 8.37413C1.77708 8.20582 1.60851 8.08653 1.4145 8.0425C1.22049 7.99847 1.01695 8.03332 0.848631 8.13937C0.680317 8.24542 0.561026 8.41399 0.517 8.608C0.342 9.378 0.25 10.178 0.25 11C0.25 11.822 0.342 12.622 0.517 13.393C0.561159 13.587 0.680577 13.7555 0.848985 13.8615C1.01739 13.9674 1.22099 14.0022 1.415 13.958C1.60901 13.9138 1.77752 13.7944 1.88348 13.626C1.98944 13.4576 2.02416 13.254 1.98 13.06C1.82667 12.3841 1.74952 11.6931 1.75 11C1.75 10.291 1.83 9.602 1.98 8.94ZM2.132 15.686C2.30029 15.5801 2.50375 15.5454 2.69765 15.5894C2.89155 15.6335 3.06001 15.7528 3.166 15.921C3.90708 17.0975 4.90249 18.0929 6.079 18.834C6.16239 18.8865 6.23462 18.955 6.29156 19.0354C6.3485 19.1159 6.38903 19.2067 6.41086 19.3028C6.43268 19.3989 6.43536 19.4984 6.41874 19.5955C6.40212 19.6927 6.36653 19.7856 6.314 19.869C6.26147 19.9524 6.19303 20.0246 6.11259 20.0816C6.03215 20.1385 5.94128 20.179 5.84517 20.2009C5.65107 20.2449 5.44741 20.2101 5.279 20.104C3.91305 19.2432 2.75739 18.0872 1.897 16.721C1.84441 16.6376 1.80877 16.5447 1.79211 16.4476C1.77546 16.3504 1.77812 16.2509 1.79995 16.1548C1.82177 16.0587 1.86234 15.9678 1.91931 15.8873C1.97629 15.8069 2.04856 15.7385 2.132 15.686Z" fill="#F1F2F3" stroke="#F1F2F3" stroke-width="0.5"/>
<path d="M14.414 9.941C15.195 10.403 15.195 11.597 14.414 12.059L9.694 14.846C8.934 15.294 8 14.71 8 13.786V8.214C8 7.29 8.934 6.707 9.694 7.155L14.414 9.942V9.941Z" fill="#F1F2F3"/>
</svg>
