<svg width="22" height="22" viewBox="0 0 22 22" fill="none" xmlns="http://www.w3.org/2000/svg">
<path d="M11 21C16.5228 21 21 16.5228 21 11C21 5.47715 16.5228 1 11 1C5.47715 1 1 5.47715 1 11C1 16.5228 5.47715 21 11 21Z" stroke="#FF0000" stroke-width="1.7" stroke-linecap="round" stroke-linejoin="round"/>
<path d="M8.09 8.00001C8.3251 7.33167 8.78915 6.76811 9.39995 6.40914C10.0108 6.05016 10.7289 5.91894 11.4272 6.03872C12.1255 6.15849 12.7588 6.52153 13.2151 7.06353C13.6713 7.60554 13.9211 8.29153 13.92 9.00001C13.92 11 10.92 12 10.92 12" stroke="#FF0000" stroke-width="1.7" stroke-linecap="round" stroke-linejoin="round"/>
<path d="M11 16H11.01" stroke="#FF0000" stroke-width="1.7" stroke-linecap="round" stroke-linejoin="round"/>
</svg>
