<svg width="22" height="22" viewBox="0 0 22 22" fill="none" xmlns="http://www.w3.org/2000/svg">
<path d="M1 2.11003V6.55556H5.44553" stroke="#FF0000" stroke-width="1.7" stroke-linecap="round" stroke-linejoin="round"/>
<path d="M1.05557 12.1125C1.30175 14.3417 2.28998 16.4235 3.86157 18.0236C5.43315 19.6236 7.49688 20.6491 9.72133 20.9352C11.9458 21.2214 14.2019 20.7517 16.1272 19.6015C18.0526 18.4513 19.5356 16.6874 20.338 14.593C21.1404 12.4987 21.2156 10.1955 20.5516 8.05322C19.8876 5.91099 18.5229 4.05407 16.6766 2.78068C14.8304 1.5073 12.6098 0.891345 10.3714 1.03174C8.13304 1.17214 6.00679 2.06074 4.33414 3.55483L1 6.55556" stroke="#FF0000" stroke-width="1.7" stroke-linecap="round" stroke-linejoin="round"/>
<path d="M9.9498 7V12.0537L13.5 14" stroke="#FF0000" stroke-width="1.7" stroke-linecap="round" stroke-linejoin="round"/>
</svg>
