<svg width="23" height="25" viewBox="0 0 23 25" fill="none" xmlns="http://www.w3.org/2000/svg">
<path d="M8.175 24H2.5375C1.6888 24 1 23.366 1 22.5848L1 9.84836L10.1621 1.41398C10.4507 1.14889 10.8417 1 11.2493 1C11.657 1 12.048 1.14889 12.3365 1.41398L21.5 9.84836V22.5848C21.5 23.366 20.8112 24 19.9625 24H14.325M8.175 24V17.8676M8.175 24H6.125M8.175 17.8676C8.175 17.0864 8.8638 16.4525 9.7125 16.4525M8.175 17.8676L8.33149 17.2452L8.585 16.9058L8.73536 16.7752L9.118 16.5378L9.7125 16.4525M9.7125 16.4525H11.25H12.7875M12.7875 16.4525C13.6362 16.4525 14.325 17.0864 14.325 17.8676M12.7875 16.4525L13.3142 16.5378L13.915 16.9058L14.2532 17.4392L14.325 17.8676M14.325 17.8676V24M14.325 24H17.4" stroke="#F1F2F3" stroke-width="1.8" stroke-linecap="round" stroke-linejoin="round"/>
</svg>
