<svg width="20" height="22" viewBox="0 0 20 22" fill="none" xmlns="http://www.w3.org/2000/svg">
<path d="M15.5 7.33333C15.5 5.87464 14.9205 4.47569 13.8891 3.44424C12.8576 2.41279 11.4587 1.83333 10 1.83333C8.54131 1.83333 7.14236 2.41279 6.11091 3.44424C5.07946 4.47569 4.5 5.87464 4.5 7.33333C4.5 13.75 1.75 15.5833 1.75 15.5833H18.25C18.25 15.5833 15.5 13.75 15.5 7.33333Z" stroke="#F1F2F3" stroke-width="1.7" stroke-linecap="round" stroke-linejoin="round"/>
<path d="M11.5858 19.25C11.4247 19.5278 11.1934 19.7584 10.915 19.9187C10.6367 20.079 10.3212 20.1634 10 20.1634C9.67882 20.1634 9.36328 20.079 9.08496 19.9187C8.80665 19.7584 8.57533 19.5278 8.41417 19.25" stroke="#F1F2F3" stroke-width="1.7" stroke-linecap="round" stroke-linejoin="round"/>
</svg>
