<svg width="19" height="15" viewBox="0 0 19 15" fill="none" xmlns="http://www.w3.org/2000/svg">
<path fill-rule="evenodd" clip-rule="evenodd" d="M0 0.75C0 0.551088 0.0769914 0.360322 0.214037 0.21967C0.351083 0.0790175 0.536957 0 0.730769 0H18.2692C18.463 0 18.6489 0.0790175 18.786 0.21967C18.923 0.360322 19 0.551088 19 0.75C19 0.948912 18.923 1.13968 18.786 1.28033C18.6489 1.42098 18.463 1.5 18.2692 1.5H0.730769C0.536957 1.5 0.351083 1.42098 0.214037 1.28033C0.0769914 1.13968 0 0.948912 0 0.75ZM0 4.75C0 4.55109 0.0769914 4.36032 0.214037 4.21967C0.351083 4.07902 0.536957 4 0.730769 4H18.2692C18.463 4 18.6489 4.07902 18.786 4.21967C18.923 4.36032 19 4.55109 19 4.75C19 4.94891 18.923 5.13968 18.786 5.28033C18.6489 5.42098 18.463 5.5 18.2692 5.5H0.730769C0.536957 5.5 0.351083 5.42098 0.214037 5.28033C0.0769914 5.13968 0 4.94891 0 4.75ZM0 8.75C0 8.55109 0.0769914 8.36032 0.214037 8.21967C0.351083 8.07902 0.536957 8 0.730769 8H8.52564C8.71945 8 8.90533 8.07902 9.04237 8.21967C9.17942 8.36032 9.25641 8.55109 9.25641 8.75C9.25641 8.94891 9.17942 9.13968 9.04237 9.28033C8.90533 9.42098 8.71945 9.5 8.52564 9.5H0.730769C0.536957 9.5 0.351083 9.42098 0.214037 9.28033C0.0769914 9.13968 0 8.94891 0 8.75ZM0 12.75C0 12.5511 0.0769914 12.3603 0.214037 12.2197C0.351083 12.079 0.536957 12 0.730769 12H8.52564C8.71945 12 8.90533 12.079 9.04237 12.2197C9.17942 12.3603 9.25641 12.5511 9.25641 12.75C9.25641 12.9489 9.17942 13.1397 9.04237 13.2803C8.90533 13.421 8.71945 13.5 8.52564 13.5H0.730769C0.536957 13.5 0.351083 13.421 0.214037 13.2803C0.0769914 13.1397 0 12.9489 0 12.75Z" fill="#FF0000"/>
<path d="M16.1987 8.868C17.8103 9.823 18.6151 10.301 18.734 10.989C18.7636 11.1613 18.7636 11.3377 18.734 11.51C18.6161 12.2 17.8103 12.677 16.1987 13.632C14.5871 14.586 13.7823 15.064 13.1412 14.825C12.981 14.7653 12.8323 14.6773 12.7017 14.565C12.1795 14.115 12.1795 13.16 12.1795 11.25C12.1795 9.34 12.1795 8.386 12.7017 7.936C12.8323 7.823 12.9814 7.736 13.1412 7.676C13.7813 7.436 14.5871 7.914 16.1987 8.868Z" fill="#FF0000"/>
</svg>
