<svg width="20" height="15" viewBox="0 0 20 15" fill="none" xmlns="http://www.w3.org/2000/svg">
<path fill-rule="evenodd" clip-rule="evenodd" d="M0 0.75C0 0.551088 0.0790175 0.360322 0.21967 0.21967C0.360322 0.0790175 0.551088 0 0.75 0H18.75C18.9489 0 19.1397 0.0790175 19.2803 0.21967C19.421 0.360322 19.5 0.551088 19.5 0.75C19.5 0.948912 19.421 1.13968 19.2803 1.28033C19.1397 1.42098 18.9489 1.5 18.75 1.5H0.75C0.551088 1.5 0.360322 1.42098 0.21967 1.28033C0.0790175 1.13968 0 0.948912 0 0.75ZM0 4.75C0 4.55109 0.0790175 4.36032 0.21967 4.21967C0.360322 4.07902 0.551088 4 0.75 4H18.75C18.9489 4 19.1397 4.07902 19.2803 4.21967C19.421 4.36032 19.5 4.55109 19.5 4.75C19.5 4.94891 19.421 5.13968 19.2803 5.28033C19.1397 5.42098 18.9489 5.5 18.75 5.5H0.75C0.551088 5.5 0.360322 5.42098 0.21967 5.28033C0.0790175 5.13968 0 4.94891 0 4.75ZM0 8.75C0 8.55109 0.0790175 8.36032 0.21967 8.21967C0.360322 8.07902 0.551088 8 0.75 8H8.75C8.94891 8 9.13968 8.07902 9.28033 8.21967C9.42098 8.36032 9.5 8.55109 9.5 8.75C9.5 8.94891 9.42098 9.13968 9.28033 9.28033C9.13968 9.42098 8.94891 9.5 8.75 9.5H0.75C0.551088 9.5 0.360322 9.42098 0.21967 9.28033C0.0790175 9.13968 0 8.94891 0 8.75ZM0 12.75C0 12.5511 0.0790175 12.3603 0.21967 12.2197C0.360322 12.079 0.551088 12 0.75 12H8.75C8.94891 12 9.13968 12.079 9.28033 12.2197C9.42098 12.3603 9.5 12.5511 9.5 12.75C9.5 12.9489 9.42098 13.1397 9.28033 13.2803C9.13968 13.421 8.94891 13.5 8.75 13.5H0.75C0.551088 13.5 0.360322 13.421 0.21967 13.2803C0.0790175 13.1397 0 12.9489 0 12.75Z" fill="#F1F2F3"/>
<path d="M15.75 14.75C15.5881 14.75 15.4523 14.6951 15.3426 14.5854C15.2329 14.4757 15.1782 14.3401 15.1786 14.1786V11.3214H12.3214C12.1595 11.3214 12.0237 11.2666 11.914 11.1569C11.8043 11.0471 11.7496 10.9115 11.75 10.75C11.75 10.5881 11.8049 10.4523 11.9146 10.3426C12.0243 10.2329 12.1599 10.1782 12.3214 10.1786H15.1786V7.32143C15.1786 7.15953 15.2334 7.02372 15.3431 6.914C15.4529 6.80429 15.5885 6.74962 15.75 6.75C15.9119 6.75 16.0477 6.80486 16.1574 6.91457C16.2671 7.02429 16.3218 7.15991 16.3214 7.32143V10.1786H19.1786C19.3405 10.1786 19.4763 10.2334 19.586 10.3431C19.6957 10.4529 19.7504 10.5885 19.75 10.75C19.75 10.9119 19.6951 11.0477 19.5854 11.1574C19.4757 11.2671 19.3401 11.3218 19.1786 11.3214H16.3214V14.1786C16.3214 14.3405 16.2666 14.4763 16.1569 14.586C16.0471 14.6957 15.9115 14.7504 15.75 14.75Z" fill="#F1F2F3" stroke="#F1F2F3" stroke-width="0.1"/>
</svg>
