<svg width="22" height="20" viewBox="0 0 22 20" fill="none" xmlns="http://www.w3.org/2000/svg">
<path d="M13 13L9.5 15V11L13 13Z" fill="#FF0000" stroke="#FF0000" stroke-width="1.7" stroke-linecap="round" stroke-linejoin="round"/>
<path d="M1 13.6283V12.4269C1 9.96901 1 8.73964 1.905 7.94921C2.811 7.15792 3.149 7.06877 6 7C6 7 10 7.00001 11 7.00001C12.181 7.00001 12 7 16 7.00001C18.851 7.06878 19.189 7.15792 20.094 7.94921C21 8.73964 21 9.96986 21 12.4269V13.6283C21 16.087 21 17.3156 20.095 18.1068C19.189 18.8973 18.852 18.9321 16 19C14.6958 18.9967 6 19 6 19C3.149 18.9321 2.811 18.8981 1.905 18.1068C1 17.3156 1 16.0853 1 13.6283Z" stroke="#FF0000" stroke-width="1.7"/>
<path d="M5 1H17" stroke="#FF0000" stroke-width="1.7" stroke-linecap="round"/>
<path d="M2.99998 4.14999L3.5 4H6.99998H11H15H18.5L19 4.14999" stroke="#FF0000" stroke-width="1.7" stroke-linecap="round"/>
</svg>
